<?xml version="1.0" encoding="UTF-8"?>
<!-- Do not edit this file with editors other than draw.io -->
<!DOCTYPE svg PUBLIC "-//W3C//DTD SVG 1.1//EN" "http://www.w3.org/Graphics/SVG/1.1/DTD/svg11.dtd">
<svg xmlns="http://www.w3.org/2000/svg" style="background: transparent; background-color: transparent; color-scheme: light dark;" xmlns:xlink="http://www.w3.org/1999/xlink" version="1.1" width="51px" height="51px" viewBox="0 0 51 51" content="&lt;mxfile host=&quot;app.diagrams.net&quot; agent=&quot;Mozilla/5.0 (Windows NT 10.0; Win64; x64) AppleWebKit/537.36 (KHTML, like Gecko) Chrome/143.0.0.0 Safari/537.36&quot; version=&quot;29.2.9&quot;&gt;&#10;  &lt;diagram name=&quot;Página-1&quot; id=&quot;iZcb5ecqQluPJfcpq1iI&quot;&gt;&#10;    &lt;mxGraphModel dx=&quot;1042&quot; dy=&quot;562&quot; grid=&quot;1&quot; gridSize=&quot;10&quot; guides=&quot;1&quot; tooltips=&quot;1&quot; connect=&quot;1&quot; arrows=&quot;1&quot; fold=&quot;1&quot; page=&quot;1&quot; pageScale=&quot;1&quot; pageWidth=&quot;827&quot; pageHeight=&quot;1169&quot; math=&quot;0&quot; shadow=&quot;0&quot;&gt;&#10;      &lt;root&gt;&#10;        &lt;mxCell id=&quot;0&quot; /&gt;&#10;        &lt;mxCell id=&quot;1&quot; parent=&quot;0&quot; /&gt;&#10;        &lt;mxCell id=&quot;_pZBpcxLpmIJL7XxpVbv-2&quot; parent=&quot;1&quot; style=&quot;sketch=0;points=[[0.015,0.015,0],[0.985,0.015,0],[0.985,0.985,0],[0.015,0.985,0],[0.25,0,0],[0.5,0,0],[0.75,0,0],[1,0.25,0],[1,0.5,0],[1,0.75,0],[0.75,1,0],[0.5,1,0],[0.25,1,0],[0,0.75,0],[0,0.5,0],[0,0.25,0]];verticalLabelPosition=bottom;html=1;verticalAlign=top;aspect=fixed;align=center;pointerEvents=1;shape=mxgraph.cisco19.rect;prIcon=nexus_5k;&quot; value=&quot;&quot; vertex=&quot;1&quot;&gt;&#10;          &lt;mxGeometry height=&quot;50&quot; width=&quot;50&quot; x=&quot;390&quot; y=&quot;270&quot; as=&quot;geometry&quot; /&gt;&#10;        &lt;/mxCell&gt;&#10;      &lt;/root&gt;&#10;    &lt;/mxGraphModel&gt;&#10;  &lt;/diagram&gt;&#10;&lt;/mxfile&gt;&#10;"><defs/><g><g data-cell-id="0"><g data-cell-id="1"><g data-cell-id="_pZBpcxLpmIJL7XxpVbv-2"><g transform="translate(0.5,0.5)"><rect x="0" y="0" width="50" height="50" fill="none" stroke="none" pointer-events="all"/><path d="M 3.07 0 C 1.38 0 0 1.37 0 3.05 L 0 46.95 C 0 48.63 1.38 50 3.07 50 L 46.93 50 C 48.62 50 50 48.63 50 46.95 L 50 3.05 C 50 1.37 48.62 0 46.93 0 Z" fill="#ffffff" stroke="none" pointer-events="all" style="fill: light-dark(#ffffff, var(--ge-dark-color, #121212));"/><rect x="0" y="0" width="50" height="50" fill="none" stroke="none" pointer-events="all"/><path d="M 35.95 40.57 C 36.18 41.4 36.83 42.05 37.66 42.29 C 36.75 43.07 35.89 43.72 35.16 44.18 C 34.58 44.54 34.08 44.79 33.72 44.91 C 33.54 44.96 33.39 44.98 33.31 44.98 C 33.22 44.98 33.21 44.96 33.21 44.96 C 33.2 44.96 33.19 44.95 33.18 44.86 C 33.18 44.77 33.21 44.63 33.27 44.45 C 33.39 44.09 33.65 43.6 34.02 43.03 C 34.5 42.31 35.16 41.46 35.95 40.57 Z M 40.77 40.57 C 41.57 41.46 42.23 42.31 42.7 43.03 C 43.08 43.6 43.34 44.09 43.46 44.45 C 43.52 44.63 43.54 44.77 43.54 44.86 C 43.54 44.95 43.52 44.96 43.52 44.96 C 43.52 44.96 43.5 44.98 43.42 44.98 C 43.33 44.98 43.19 44.96 43.01 44.91 C 42.65 44.79 42.14 44.54 41.57 44.18 C 40.83 43.72 39.98 43.07 39.07 42.29 C 39.9 42.05 40.54 41.4 40.77 40.57 Z M 33.31 34.83 C 33.39 34.83 33.54 34.85 33.72 34.91 C 34.08 35.02 34.58 35.27 35.16 35.63 C 35.89 36.1 36.75 36.74 37.66 37.52 C 36.83 37.76 36.19 38.41 35.95 39.24 C 35.16 38.35 34.5 37.51 34.02 36.78 C 33.65 36.21 33.39 35.72 33.27 35.36 C 33.21 35.18 33.18 35.04 33.18 34.95 C 33.19 34.87 33.21 34.85 33.21 34.85 C 33.21 34.85 33.22 34.83 33.31 34.83 Z M 43.42 34.83 L 43.42 34.83 C 43.5 34.83 43.52 34.85 43.52 34.85 C 43.52 34.85 43.54 34.87 43.54 34.95 C 43.54 35.04 43.52 35.18 43.46 35.36 C 43.34 35.72 43.08 36.21 42.7 36.78 C 42.23 37.51 41.57 38.35 40.77 39.24 C 40.54 38.41 39.9 37.76 39.07 37.52 C 39.98 36.74 40.83 36.09 41.57 35.63 C 42.14 35.27 42.65 35.02 43.01 34.91 C 43.19 34.85 43.33 34.83 43.42 34.83 Z M 38.39 33.02 L 37.09 34.26 L 38.01 34.26 L 38.01 36.89 C 37.12 36.13 36.28 35.5 35.54 35.04 C 34.93 34.65 34.39 34.38 33.93 34.23 C 33.7 34.16 33.49 34.12 33.28 34.12 C 33.08 34.13 32.86 34.2 32.7 34.36 C 32.54 34.51 32.48 34.73 32.48 34.94 C 32.47 35.15 32.52 35.36 32.59 35.58 C 32.75 36.04 33.03 36.57 33.43 37.17 C 33.9 37.89 34.53 38.7 35.28 39.55 L 32.69 39.55 L 32.69 38.64 L 31.45 39.93 L 32.69 41.17 L 32.69 40.32 L 35.23 40.32 C 34.5 41.15 33.89 41.94 33.43 42.64 C 33.03 43.24 32.75 43.77 32.59 44.23 C 32.52 44.46 32.47 44.67 32.48 44.87 C 32.48 45.08 32.54 45.3 32.7 45.46 C 32.86 45.61 33.08 45.68 33.28 45.69 C 33.49 45.7 33.7 45.65 33.93 45.58 C 34.39 45.43 34.93 45.16 35.54 44.78 C 36.28 44.31 37.12 43.68 38.01 42.92 L 38.01 45.55 L 37.09 45.55 L 38.39 46.79 L 39.64 45.55 L 38.78 45.55 L 38.78 42.98 C 39.64 43.71 40.46 44.32 41.19 44.78 C 41.8 45.16 42.33 45.43 42.79 45.58 C 43.02 45.65 43.24 45.7 43.44 45.69 C 43.65 45.68 43.87 45.61 44.03 45.46 C 44.18 45.3 44.25 45.08 44.25 44.87 C 44.25 44.67 44.21 44.46 44.13 44.23 C 43.98 43.77 43.69 43.24 43.3 42.64 C 42.84 41.94 42.23 41.15 41.5 40.32 L 44.04 40.32 L 44.04 41.17 L 45.28 39.93 L 44.04 38.64 L 44.04 39.55 L 41.44 39.55 C 42.19 38.7 42.83 37.89 43.3 37.17 C 43.69 36.57 43.98 36.04 44.13 35.58 C 44.21 35.36 44.25 35.15 44.25 34.94 C 44.25 34.73 44.18 34.51 44.03 34.36 C 43.87 34.2 43.65 34.13 43.44 34.12 C 43.24 34.12 43.02 34.16 42.79 34.23 C 42.33 34.38 41.8 34.65 41.19 35.04 C 40.46 35.49 39.64 36.1 38.78 36.83 L 38.78 34.26 L 39.64 34.26 Z M 12.83 24.24 L 5.22 28.74 L 12.83 33.16 L 12.83 30.25 L 21.76 30.25 L 21.76 26.9 L 12.83 26.9 Z M 32.5 17.53 L 32.5 20.18 L 23.57 20.18 L 23.57 23.54 L 32.5 23.54 L 32.5 26.44 L 40.11 22.02 Z M 17.94 11.12 L 10.34 15.61 L 17.94 20.03 L 17.94 17.12 L 26.88 17.12 L 26.88 13.77 L 17.94 13.77 Z M 37.48 4.38 L 37.48 7.04 L 28.54 7.04 L 28.54 10.39 L 37.48 10.39 L 37.48 13.3 L 45.08 8.87 Z M 3.07 1.38 L 46.93 1.38 C 47.88 1.38 48.62 2.11 48.62 3.05 L 48.62 46.95 C 48.62 47.89 47.88 48.62 46.93 48.62 L 3.07 48.62 C 2.12 48.62 1.38 47.89 1.38 46.95 L 1.38 3.05 C 1.38 2.11 2.12 1.38 3.07 1.38 Z M 3.07 0 C 1.38 0 0 1.37 0 3.05 L 0 46.95 C 0 48.63 1.38 50 3.07 50 L 46.93 50 C 48.62 50 50 48.63 50 46.95 L 50 3.05 C 50 1.37 48.62 0 46.93 0 Z" fill="#000000" stroke="none" pointer-events="all" style="fill: light-dark(rgb(0, 0, 0), rgb(255, 255, 255));"/><path d="M 40.86 39.91 C 40.86 41.28 39.74 42.39 38.36 42.39 C 36.98 42.39 35.86 41.28 35.86 39.91 C 35.86 38.53 36.98 37.41 38.36 37.41 C 39.74 37.42 40.86 38.53 40.86 39.91 Z" fill-opacity="0.5" fill="#ffffff" stroke="none" pointer-events="all" style="fill: light-dark(rgb(255, 255, 255), rgb(18, 18, 18));"/></g></g></g></g></g></svg>